<?xml version="1.0" encoding="UTF-8" standalone="no"?>
<!DOCTYPE svg PUBLIC "-//W3C//DTD SVG 1.1//EN"
 "http://www.w3.org/Graphics/SVG/1.1/DTD/svg11.dtd">
<!-- Generated by graphviz version 12.1.2 (20240928.0832)
 -->
<!-- Title: public.applications Pages: 1 -->
<svg width="731pt" height="972pt"
 viewBox="0.00 0.00 731.29 971.60" xmlns="http://www.w3.org/2000/svg" xmlns:xlink="http://www.w3.org/1999/xlink">
<g id="graph0" class="graph" transform="scale(1 1) rotate(0) translate(4 967.6)">
<title>public.applications</title>
<polygon fill="white" stroke="none" points="-4,4 -4,-967.6 727.29,-967.6 727.29,4 -4,4"/>
<!-- public.applications -->
<g id="node1" class="node">
<title>public.applications</title>
<polygon fill="#efefef" stroke="none" points="46.2,-261.8 46.2,-297.4 321.16,-297.4 321.16,-261.8 46.2,-261.8"/>
<polygon fill="none" stroke="black" points="46.2,-261.8 46.2,-297.4 321.16,-297.4 321.16,-261.8 46.2,-261.8"/>
<text text-anchor="start" x="53.2" y="-275.2" font-family="Arial Bold" font-size="18.00">public.applications</text>
<text text-anchor="start" x="189.67" y="-275.2" font-family="Arial" font-size="14.00">    </text>
<text text-anchor="start" x="220.78" y="-275.2" font-family="Arial" font-size="14.00" fill="#666666">[BASE TABLE]</text>
<polygon fill="none" stroke="black" points="46.2,-231 46.2,-261.8 321.16,-261.8 321.16,-231 46.2,-231"/>
<text text-anchor="start" x="53.2" y="-243.2" font-family="Arial" font-size="14.00">id </text>
<text text-anchor="start" x="67.99" y="-243.2" font-family="Arial" font-size="14.00" fill="#666666">[text]</text>
<polygon fill="none" stroke="black" points="46.2,-200.2 46.2,-231 321.16,-231 321.16,-200.2 46.2,-200.2"/>
<text text-anchor="start" x="53.2" y="-212.4" font-family="Arial" font-size="14.00">name </text>
<text text-anchor="start" x="92.11" y="-212.4" font-family="Arial" font-size="14.00" fill="#666666">[text]</text>
<polygon fill="none" stroke="black" points="46.2,-169.4 46.2,-200.2 321.16,-200.2 321.16,-169.4 46.2,-169.4"/>
<text text-anchor="start" x="53.2" y="-181.6" font-family="Arial" font-size="14.00">description </text>
<text text-anchor="start" x="124.79" y="-181.6" font-family="Arial" font-size="14.00" fill="#666666">[text]</text>
<polygon fill="none" stroke="black" points="46.2,-138.6 46.2,-169.4 321.16,-169.4 321.16,-138.6 46.2,-138.6"/>
<text text-anchor="start" x="53.2" y="-150.8" font-family="Arial" font-size="14.00">platforms </text>
<text text-anchor="start" x="114.66" y="-150.8" font-family="Arial" font-size="14.00" fill="#666666">[jsonb]</text>
<polygon fill="none" stroke="black" points="46.2,-107.8 46.2,-138.6 321.16,-138.6 321.16,-107.8 46.2,-107.8"/>
<text text-anchor="start" x="53.2" y="-120" font-family="Arial" font-size="14.00">config </text>
<text text-anchor="start" x="94.45" y="-120" font-family="Arial" font-size="14.00" fill="#666666">[jsonb]</text>
<polygon fill="none" stroke="black" points="46.2,-77 46.2,-107.8 321.16,-107.8 321.16,-77 46.2,-77"/>
<text text-anchor="start" x="53.2" y="-89.2" font-family="Arial" font-size="14.00">created_at </text>
<text text-anchor="start" x="123.25" y="-89.2" font-family="Arial" font-size="14.00" fill="#666666">[timestamp with time zone]</text>
<polygon fill="none" stroke="black" points="46.2,-46.2 46.2,-77 321.16,-77 321.16,-46.2 46.2,-46.2"/>
<text text-anchor="start" x="53.2" y="-58.4" font-family="Arial" font-size="14.00">updated_at </text>
<text text-anchor="start" x="127.16" y="-58.4" font-family="Arial" font-size="14.00" fill="#666666">[timestamp with time zone]</text>
<polygon fill="none" stroke="black" stroke-width="3" points="44.7,-44.7 44.7,-298.9 322.66,-298.9 322.66,-44.7 44.7,-44.7"/>
</g>
<!-- public.releases -->
<g id="node2" class="node">
<title>public.releases</title>
<polygon fill="#efefef" stroke="none" points="51.4,-884.8 51.4,-920.4 315.96,-920.4 315.96,-884.8 51.4,-884.8"/>
<polygon fill="none" stroke="black" points="51.4,-884.8 51.4,-920.4 315.96,-920.4 315.96,-884.8 51.4,-884.8"/>
<text text-anchor="start" x="68.21" y="-898.2" font-family="Arial Bold" font-size="18.00">public.releases</text>
<text text-anchor="start" x="174.66" y="-898.2" font-family="Arial" font-size="14.00">    </text>
<text text-anchor="start" x="205.78" y="-898.2" font-family="Arial" font-size="14.00" fill="#666666">[BASE TABLE]</text>
<polygon fill="none" stroke="black" points="51.4,-854 51.4,-884.8 315.96,-884.8 315.96,-854 51.4,-854"/>
<text text-anchor="start" x="58.4" y="-866.2" font-family="Arial" font-size="14.00">id </text>
<text text-anchor="start" x="73.18" y="-866.2" font-family="Arial" font-size="14.00" fill="#666666">[text]</text>
<polygon fill="none" stroke="black" points="51.4,-823.2 51.4,-854 315.96,-854 315.96,-823.2 51.4,-823.2"/>
<text text-anchor="start" x="58.4" y="-835.4" font-family="Arial" font-size="14.00">application_id </text>
<text text-anchor="start" x="147.91" y="-835.4" font-family="Arial" font-size="14.00" fill="#666666">[text]</text>
<polygon fill="none" stroke="black" points="51.4,-792.4 51.4,-823.2 315.96,-823.2 315.96,-792.4 51.4,-792.4"/>
<text text-anchor="start" x="58.4" y="-804.6" font-family="Arial" font-size="14.00">version </text>
<text text-anchor="start" x="107.42" y="-804.6" font-family="Arial" font-size="14.00" fill="#666666">[text]</text>
<polygon fill="none" stroke="black" points="51.4,-761.6 51.4,-792.4 315.96,-792.4 315.96,-761.6 51.4,-761.6"/>
<text text-anchor="start" x="58.4" y="-773.8" font-family="Arial" font-size="14.00">platform </text>
<text text-anchor="start" x="112.86" y="-773.8" font-family="Arial" font-size="14.00" fill="#666666">[text]</text>
<polygon fill="none" stroke="black" points="51.4,-730.8 51.4,-761.6 315.96,-761.6 315.96,-730.8 51.4,-730.8"/>
<text text-anchor="start" x="58.4" y="-743" font-family="Arial" font-size="14.00">architecture </text>
<text text-anchor="start" x="135.43" y="-743" font-family="Arial" font-size="14.00" fill="#666666">[text]</text>
<polygon fill="none" stroke="black" points="51.4,-700 51.4,-730.8 315.96,-730.8 315.96,-700 51.4,-700"/>
<text text-anchor="start" x="58.4" y="-712.2" font-family="Arial" font-size="14.00">download_url </text>
<text text-anchor="start" x="145.57" y="-712.2" font-family="Arial" font-size="14.00" fill="#666666">[text]</text>
<polygon fill="none" stroke="black" points="51.4,-669.2 51.4,-700 315.96,-700 315.96,-669.2 51.4,-669.2"/>
<text text-anchor="start" x="58.4" y="-681.4" font-family="Arial" font-size="14.00">checksum </text>
<text text-anchor="start" x="125.31" y="-681.4" font-family="Arial" font-size="14.00" fill="#666666">[text]</text>
<polygon fill="none" stroke="black" points="51.4,-638.4 51.4,-669.2 315.96,-669.2 315.96,-638.4 51.4,-638.4"/>
<text text-anchor="start" x="58.4" y="-650.6" font-family="Arial" font-size="14.00">checksum_type </text>
<text text-anchor="start" x="159.55" y="-650.6" font-family="Arial" font-size="14.00" fill="#666666">[text]</text>
<polygon fill="none" stroke="black" points="51.4,-607.6 51.4,-638.4 315.96,-638.4 315.96,-607.6 51.4,-607.6"/>
<text text-anchor="start" x="58.4" y="-619.8" font-family="Arial" font-size="14.00">file_size </text>
<text text-anchor="start" x="112.87" y="-619.8" font-family="Arial" font-size="14.00" fill="#666666">[bigint]</text>
<polygon fill="none" stroke="black" points="51.4,-576.8 51.4,-607.6 315.96,-607.6 315.96,-576.8 51.4,-576.8"/>
<text text-anchor="start" x="58.4" y="-589" font-family="Arial" font-size="14.00">release_notes </text>
<text text-anchor="start" x="150.24" y="-589" font-family="Arial" font-size="14.00" fill="#666666">[text]</text>
<polygon fill="none" stroke="black" points="51.4,-546 51.4,-576.8 315.96,-576.8 315.96,-546 51.4,-546"/>
<text text-anchor="start" x="58.4" y="-558.2" font-family="Arial" font-size="14.00">release_date </text>
<text text-anchor="start" x="143.24" y="-558.2" font-family="Arial" font-size="14.00" fill="#666666">[timestamp with time zone]</text>
<polygon fill="none" stroke="black" points="51.4,-515.2 51.4,-546 315.96,-546 315.96,-515.2 51.4,-515.2"/>
<text text-anchor="start" x="58.4" y="-527.4" font-family="Arial" font-size="14.00">required </text>
<text text-anchor="start" x="113.65" y="-527.4" font-family="Arial" font-size="14.00" fill="#666666">[boolean]</text>
<polygon fill="none" stroke="black" points="51.4,-484.4 51.4,-515.2 315.96,-515.2 315.96,-484.4 51.4,-484.4"/>
<text text-anchor="start" x="58.4" y="-496.6" font-family="Arial" font-size="14.00">minimum_version </text>
<text text-anchor="start" x="171.98" y="-496.6" font-family="Arial" font-size="14.00" fill="#666666">[text]</text>
<polygon fill="none" stroke="black" points="51.4,-453.6 51.4,-484.4 315.96,-484.4 315.96,-453.6 51.4,-453.6"/>
<text text-anchor="start" x="58.4" y="-465.8" font-family="Arial" font-size="14.00">metadata </text>
<text text-anchor="start" x="120.66" y="-465.8" font-family="Arial" font-size="14.00" fill="#666666">[jsonb]</text>
<polygon fill="none" stroke="black" points="51.4,-422.8 51.4,-453.6 315.96,-453.6 315.96,-422.8 51.4,-422.8"/>
<text text-anchor="start" x="58.4" y="-435" font-family="Arial" font-size="14.00">created_at </text>
<text text-anchor="start" x="128.44" y="-435" font-family="Arial" font-size="14.00" fill="#666666">[timestamp with time zone]</text>
</g>
<!-- public.releases&#45;&gt;public.applications -->
<g id="edge1" class="edge">
<title>public.releases:application_id&#45;&gt;public.applications:id</title>
<path fill="none" stroke="black" d="M326.17,-834.5C383.1,-782.18 384.75,-246.4 322.16,-246.4"/>
<polygon fill="black" stroke="black" points="326.4,-834.4 315.44,-834.35 321.53,-836.57 317.57,-838.33 317.57,-838.33 317.57,-838.33 321.53,-836.57 319.1,-842.57 326.4,-834.4"/>
<text text-anchor="start" x="323.96" y="-848.6" font-family="Arial" font-size="10.00">FOREIGN KEY (application_id) REFERENCES applications(id) ON DELETE RESTRICT</text>
</g>
</g>
</svg>
