<?xml version="1.0" encoding="UTF-8" standalone="no"?>
<!DOCTYPE svg PUBLIC "-//W3C//DTD SVG 1.1//EN"
 "http://www.w3.org/Graphics/SVG/1.1/DTD/svg11.dtd">
<!-- Generated by graphviz version 12.1.2 (20240928.0832)
 -->
<!-- Title: updater Pages: 1 -->
<svg width="815pt" height="966pt"
 viewBox="0.00 0.00 815.09 965.60" xmlns="http://www.w3.org/2000/svg" xmlns:xlink="http://www.w3.org/1999/xlink">
<g id="graph0" class="graph" transform="scale(1 1) rotate(0) translate(4 961.6)">
<title>updater</title>
<polygon fill="white" stroke="none" points="-4,4 -4,-961.6 811.09,-961.6 811.09,4 -4,4"/>
<!-- public.applications -->
<g id="node1" class="node">
<title>public.applications</title>
<polygon fill="#efefef" stroke="none" points="135.57,-258.8 135.57,-294.4 410.53,-294.4 410.53,-258.8 135.57,-258.8"/>
<polygon fill="none" stroke="black" points="135.57,-258.8 135.57,-294.4 410.53,-294.4 410.53,-258.8 135.57,-258.8"/>
<text text-anchor="start" x="142.57" y="-272.2" font-family="Arial Bold" font-size="18.00">public.applications</text>
<text text-anchor="start" x="279.04" y="-272.2" font-family="Arial" font-size="14.00">    </text>
<text text-anchor="start" x="310.16" y="-272.2" font-family="Arial" font-size="14.00" fill="#666666">[BASE TABLE]</text>
<polygon fill="none" stroke="black" points="135.57,-228 135.57,-258.8 410.53,-258.8 410.53,-228 135.57,-228"/>
<text text-anchor="start" x="142.57" y="-240.2" font-family="Arial" font-size="14.00">id </text>
<text text-anchor="start" x="157.36" y="-240.2" font-family="Arial" font-size="14.00" fill="#666666">[text]</text>
<polygon fill="none" stroke="black" points="135.57,-197.2 135.57,-228 410.53,-228 410.53,-197.2 135.57,-197.2"/>
<text text-anchor="start" x="142.57" y="-209.4" font-family="Arial" font-size="14.00">name </text>
<text text-anchor="start" x="181.48" y="-209.4" font-family="Arial" font-size="14.00" fill="#666666">[text]</text>
<polygon fill="none" stroke="black" points="135.57,-166.4 135.57,-197.2 410.53,-197.2 410.53,-166.4 135.57,-166.4"/>
<text text-anchor="start" x="142.57" y="-178.6" font-family="Arial" font-size="14.00">description </text>
<text text-anchor="start" x="214.17" y="-178.6" font-family="Arial" font-size="14.00" fill="#666666">[text]</text>
<polygon fill="none" stroke="black" points="135.57,-135.6 135.57,-166.4 410.53,-166.4 410.53,-135.6 135.57,-135.6"/>
<text text-anchor="start" x="142.57" y="-147.8" font-family="Arial" font-size="14.00">platforms </text>
<text text-anchor="start" x="204.04" y="-147.8" font-family="Arial" font-size="14.00" fill="#666666">[jsonb]</text>
<polygon fill="none" stroke="black" points="135.57,-104.8 135.57,-135.6 410.53,-135.6 410.53,-104.8 135.57,-104.8"/>
<text text-anchor="start" x="142.57" y="-117" font-family="Arial" font-size="14.00">config </text>
<text text-anchor="start" x="183.82" y="-117" font-family="Arial" font-size="14.00" fill="#666666">[jsonb]</text>
<polygon fill="none" stroke="black" points="135.57,-74 135.57,-104.8 410.53,-104.8 410.53,-74 135.57,-74"/>
<text text-anchor="start" x="142.57" y="-86.2" font-family="Arial" font-size="14.00">created_at </text>
<text text-anchor="start" x="212.62" y="-86.2" font-family="Arial" font-size="14.00" fill="#666666">[timestamp with time zone]</text>
<polygon fill="none" stroke="black" points="135.57,-43.2 135.57,-74 410.53,-74 410.53,-43.2 135.57,-43.2"/>
<text text-anchor="start" x="142.57" y="-55.4" font-family="Arial" font-size="14.00">updated_at </text>
<text text-anchor="start" x="216.53" y="-55.4" font-family="Arial" font-size="14.00" fill="#666666">[timestamp with time zone]</text>
</g>
<!-- public.releases -->
<g id="node2" class="node">
<title>public.releases</title>
<polygon fill="#efefef" stroke="none" points="140.77,-878.8 140.77,-914.4 405.33,-914.4 405.33,-878.8 140.77,-878.8"/>
<polygon fill="none" stroke="black" points="140.77,-878.8 140.77,-914.4 405.33,-914.4 405.33,-878.8 140.77,-878.8"/>
<text text-anchor="start" x="157.58" y="-892.2" font-family="Arial Bold" font-size="18.00">public.releases</text>
<text text-anchor="start" x="264.03" y="-892.2" font-family="Arial" font-size="14.00">    </text>
<text text-anchor="start" x="295.15" y="-892.2" font-family="Arial" font-size="14.00" fill="#666666">[BASE TABLE]</text>
<polygon fill="none" stroke="black" points="140.77,-848 140.77,-878.8 405.33,-878.8 405.33,-848 140.77,-848"/>
<text text-anchor="start" x="147.77" y="-860.2" font-family="Arial" font-size="14.00">id </text>
<text text-anchor="start" x="162.56" y="-860.2" font-family="Arial" font-size="14.00" fill="#666666">[text]</text>
<polygon fill="none" stroke="black" points="140.77,-817.2 140.77,-848 405.33,-848 405.33,-817.2 140.77,-817.2"/>
<text text-anchor="start" x="147.77" y="-829.4" font-family="Arial" font-size="14.00">application_id </text>
<text text-anchor="start" x="237.28" y="-829.4" font-family="Arial" font-size="14.00" fill="#666666">[text]</text>
<polygon fill="none" stroke="black" points="140.77,-786.4 140.77,-817.2 405.33,-817.2 405.33,-786.4 140.77,-786.4"/>
<text text-anchor="start" x="147.77" y="-798.6" font-family="Arial" font-size="14.00">version </text>
<text text-anchor="start" x="196.79" y="-798.6" font-family="Arial" font-size="14.00" fill="#666666">[text]</text>
<polygon fill="none" stroke="black" points="140.77,-755.6 140.77,-786.4 405.33,-786.4 405.33,-755.6 140.77,-755.6"/>
<text text-anchor="start" x="147.77" y="-767.8" font-family="Arial" font-size="14.00">platform </text>
<text text-anchor="start" x="202.23" y="-767.8" font-family="Arial" font-size="14.00" fill="#666666">[text]</text>
<polygon fill="none" stroke="black" points="140.77,-724.8 140.77,-755.6 405.33,-755.6 405.33,-724.8 140.77,-724.8"/>
<text text-anchor="start" x="147.77" y="-737" font-family="Arial" font-size="14.00">architecture </text>
<text text-anchor="start" x="224.8" y="-737" font-family="Arial" font-size="14.00" fill="#666666">[text]</text>
<polygon fill="none" stroke="black" points="140.77,-694 140.77,-724.8 405.33,-724.8 405.33,-694 140.77,-694"/>
<text text-anchor="start" x="147.77" y="-706.2" font-family="Arial" font-size="14.00">download_url </text>
<text text-anchor="start" x="234.94" y="-706.2" font-family="Arial" font-size="14.00" fill="#666666">[text]</text>
<polygon fill="none" stroke="black" points="140.77,-663.2 140.77,-694 405.33,-694 405.33,-663.2 140.77,-663.2"/>
<text text-anchor="start" x="147.77" y="-675.4" font-family="Arial" font-size="14.00">checksum </text>
<text text-anchor="start" x="214.68" y="-675.4" font-family="Arial" font-size="14.00" fill="#666666">[text]</text>
<polygon fill="none" stroke="black" points="140.77,-632.4 140.77,-663.2 405.33,-663.2 405.33,-632.4 140.77,-632.4"/>
<text text-anchor="start" x="147.77" y="-644.6" font-family="Arial" font-size="14.00">checksum_type </text>
<text text-anchor="start" x="248.93" y="-644.6" font-family="Arial" font-size="14.00" fill="#666666">[text]</text>
<polygon fill="none" stroke="black" points="140.77,-601.6 140.77,-632.4 405.33,-632.4 405.33,-601.6 140.77,-601.6"/>
<text text-anchor="start" x="147.77" y="-613.8" font-family="Arial" font-size="14.00">file_size </text>
<text text-anchor="start" x="202.24" y="-613.8" font-family="Arial" font-size="14.00" fill="#666666">[bigint]</text>
<polygon fill="none" stroke="black" points="140.77,-570.8 140.77,-601.6 405.33,-601.6 405.33,-570.8 140.77,-570.8"/>
<text text-anchor="start" x="147.77" y="-583" font-family="Arial" font-size="14.00">release_notes </text>
<text text-anchor="start" x="239.61" y="-583" font-family="Arial" font-size="14.00" fill="#666666">[text]</text>
<polygon fill="none" stroke="black" points="140.77,-540 140.77,-570.8 405.33,-570.8 405.33,-540 140.77,-540"/>
<text text-anchor="start" x="147.77" y="-552.2" font-family="Arial" font-size="14.00">release_date </text>
<text text-anchor="start" x="232.61" y="-552.2" font-family="Arial" font-size="14.00" fill="#666666">[timestamp with time zone]</text>
<polygon fill="none" stroke="black" points="140.77,-509.2 140.77,-540 405.33,-540 405.33,-509.2 140.77,-509.2"/>
<text text-anchor="start" x="147.77" y="-521.4" font-family="Arial" font-size="14.00">required </text>
<text text-anchor="start" x="203.02" y="-521.4" font-family="Arial" font-size="14.00" fill="#666666">[boolean]</text>
<polygon fill="none" stroke="black" points="140.77,-478.4 140.77,-509.2 405.33,-509.2 405.33,-478.4 140.77,-478.4"/>
<text text-anchor="start" x="147.77" y="-490.6" font-family="Arial" font-size="14.00">minimum_version </text>
<text text-anchor="start" x="261.36" y="-490.6" font-family="Arial" font-size="14.00" fill="#666666">[text]</text>
<polygon fill="none" stroke="black" points="140.77,-447.6 140.77,-478.4 405.33,-478.4 405.33,-447.6 140.77,-447.6"/>
<text text-anchor="start" x="147.77" y="-459.8" font-family="Arial" font-size="14.00">metadata </text>
<text text-anchor="start" x="210.03" y="-459.8" font-family="Arial" font-size="14.00" fill="#666666">[jsonb]</text>
<polygon fill="none" stroke="black" points="140.77,-416.8 140.77,-447.6 405.33,-447.6 405.33,-416.8 140.77,-416.8"/>
<text text-anchor="start" x="147.77" y="-429" font-family="Arial" font-size="14.00">created_at </text>
<text text-anchor="start" x="217.82" y="-429" font-family="Arial" font-size="14.00" fill="#666666">[timestamp with time zone]</text>
</g>
<!-- public.releases&#45;&gt;public.applications -->
<g id="edge1" class="edge">
<title>public.releases:application_id&#45;&gt;public.applications:id</title>
<path fill="none" stroke="black" d="M412.66,-824.72C439.6,-754.8 442.03,-243.4 411.53,-243.4"/>
<polygon fill="black" stroke="black" points="412.8,-824.54 403.03,-829.52 409.46,-828.7 406.75,-832.08 406.75,-832.08 406.75,-832.08 409.46,-828.7 410.05,-835.15 412.8,-824.54"/>
<text text-anchor="start" x="7" y="-842.6" font-family="Arial" font-size="10.00">FOREIGN KEY (application_id) REFERENCES applications(id) ON DELETE RESTRICT</text>
</g>
<!-- public.api_keys -->
<g id="node3" class="node">
<title>public.api_keys</title>
<polygon fill="#efefef" stroke="none" points="510.21,-771 510.21,-806.6 763.89,-806.6 763.89,-771 510.21,-771"/>
<polygon fill="none" stroke="black" points="510.21,-771 510.21,-806.6 763.89,-806.6 763.89,-771 510.21,-771"/>
<text text-anchor="start" x="518.07" y="-784.4" font-family="Arial Bold" font-size="18.00">public.api_keys</text>
<text text-anchor="start" x="631.54" y="-784.4" font-family="Arial" font-size="14.00">    </text>
<text text-anchor="start" x="662.66" y="-784.4" font-family="Arial" font-size="14.00" fill="#666666">[BASE TABLE]</text>
<polygon fill="none" stroke="black" points="510.21,-740.2 510.21,-771 763.89,-771 763.89,-740.2 510.21,-740.2"/>
<text text-anchor="start" x="517.21" y="-752.4" font-family="Arial" font-size="14.00">id </text>
<text text-anchor="start" x="532" y="-752.4" font-family="Arial" font-size="14.00" fill="#666666">[text]</text>
<polygon fill="none" stroke="black" points="510.21,-709.4 510.21,-740.2 763.89,-740.2 763.89,-709.4 510.21,-709.4"/>
<text text-anchor="start" x="517.21" y="-721.6" font-family="Arial" font-size="14.00">name </text>
<text text-anchor="start" x="556.12" y="-721.6" font-family="Arial" font-size="14.00" fill="#666666">[text]</text>
<polygon fill="none" stroke="black" points="510.21,-678.6 510.21,-709.4 763.89,-709.4 763.89,-678.6 510.21,-678.6"/>
<text text-anchor="start" x="517.21" y="-690.8" font-family="Arial" font-size="14.00">key_hash </text>
<text text-anchor="start" x="581.03" y="-690.8" font-family="Arial" font-size="14.00" fill="#666666">[text]</text>
<polygon fill="none" stroke="black" points="510.21,-647.8 510.21,-678.6 763.89,-678.6 763.89,-647.8 510.21,-647.8"/>
<text text-anchor="start" x="517.21" y="-660" font-family="Arial" font-size="14.00">prefix </text>
<text text-anchor="start" x="555.33" y="-660" font-family="Arial" font-size="14.00" fill="#666666">[text]</text>
<polygon fill="none" stroke="black" points="510.21,-617 510.21,-647.8 763.89,-647.8 763.89,-617 510.21,-617"/>
<text text-anchor="start" x="517.21" y="-629.2" font-family="Arial" font-size="14.00">permissions </text>
<text text-anchor="start" x="595.79" y="-629.2" font-family="Arial" font-size="14.00" fill="#666666">[jsonb]</text>
<polygon fill="none" stroke="black" points="510.21,-586.2 510.21,-617 763.89,-617 763.89,-586.2 510.21,-586.2"/>
<text text-anchor="start" x="517.21" y="-598.4" font-family="Arial" font-size="14.00">enabled </text>
<text text-anchor="start" x="570.93" y="-598.4" font-family="Arial" font-size="14.00" fill="#666666">[boolean]</text>
<polygon fill="none" stroke="black" points="510.21,-555.4 510.21,-586.2 763.89,-586.2 763.89,-555.4 510.21,-555.4"/>
<text text-anchor="start" x="517.21" y="-567.6" font-family="Arial" font-size="14.00">created_at </text>
<text text-anchor="start" x="587.26" y="-567.6" font-family="Arial" font-size="14.00" fill="#666666">[timestamp with time zone]</text>
<polygon fill="none" stroke="black" points="510.21,-524.6 510.21,-555.4 763.89,-555.4 763.89,-524.6 510.21,-524.6"/>
<text text-anchor="start" x="517.21" y="-536.8" font-family="Arial" font-size="14.00">updated_at </text>
<text text-anchor="start" x="591.17" y="-536.8" font-family="Arial" font-size="14.00" fill="#666666">[timestamp with time zone]</text>
</g>
</g>
</svg>
