<?xml version="1.0" encoding="UTF-8" standalone="no"?>
<!DOCTYPE svg PUBLIC "-//W3C//DTD SVG 1.1//EN"
 "http://www.w3.org/Graphics/SVG/1.1/DTD/svg11.dtd">
<!-- Generated by graphviz version 12.1.2 (20240928.0832)
 -->
<!-- Title: public.releases Pages: 1 -->
<svg width="728pt" height="972pt"
 viewBox="0.00 0.00 728.29 971.60" xmlns="http://www.w3.org/2000/svg" xmlns:xlink="http://www.w3.org/1999/xlink">
<g id="graph0" class="graph" transform="scale(1 1) rotate(0) translate(4 967.6)">
<title>public.releases</title>
<polygon fill="white" stroke="none" points="-4,4 -4,-967.6 724.29,-967.6 724.29,4 -4,4"/>
<!-- public.releases -->
<g id="node1" class="node">
<title>public.releases</title>
<polygon fill="#efefef" stroke="none" points="48.4,-881.8 48.4,-917.4 312.96,-917.4 312.96,-881.8 48.4,-881.8"/>
<polygon fill="none" stroke="black" points="48.4,-881.8 48.4,-917.4 312.96,-917.4 312.96,-881.8 48.4,-881.8"/>
<text text-anchor="start" x="65.21" y="-895.2" font-family="Arial Bold" font-size="18.00">public.releases</text>
<text text-anchor="start" x="171.66" y="-895.2" font-family="Arial" font-size="14.00">    </text>
<text text-anchor="start" x="202.78" y="-895.2" font-family="Arial" font-size="14.00" fill="#666666">[BASE TABLE]</text>
<polygon fill="none" stroke="black" points="48.4,-851 48.4,-881.8 312.96,-881.8 312.96,-851 48.4,-851"/>
<text text-anchor="start" x="55.4" y="-863.2" font-family="Arial" font-size="14.00">id </text>
<text text-anchor="start" x="70.18" y="-863.2" font-family="Arial" font-size="14.00" fill="#666666">[text]</text>
<polygon fill="none" stroke="black" points="48.4,-820.2 48.4,-851 312.96,-851 312.96,-820.2 48.4,-820.2"/>
<text text-anchor="start" x="55.4" y="-832.4" font-family="Arial" font-size="14.00">application_id </text>
<text text-anchor="start" x="144.91" y="-832.4" font-family="Arial" font-size="14.00" fill="#666666">[text]</text>
<polygon fill="none" stroke="black" points="48.4,-789.4 48.4,-820.2 312.96,-820.2 312.96,-789.4 48.4,-789.4"/>
<text text-anchor="start" x="55.4" y="-801.6" font-family="Arial" font-size="14.00">version </text>
<text text-anchor="start" x="104.42" y="-801.6" font-family="Arial" font-size="14.00" fill="#666666">[text]</text>
<polygon fill="none" stroke="black" points="48.4,-758.6 48.4,-789.4 312.96,-789.4 312.96,-758.6 48.4,-758.6"/>
<text text-anchor="start" x="55.4" y="-770.8" font-family="Arial" font-size="14.00">platform </text>
<text text-anchor="start" x="109.86" y="-770.8" font-family="Arial" font-size="14.00" fill="#666666">[text]</text>
<polygon fill="none" stroke="black" points="48.4,-727.8 48.4,-758.6 312.96,-758.6 312.96,-727.8 48.4,-727.8"/>
<text text-anchor="start" x="55.4" y="-740" font-family="Arial" font-size="14.00">architecture </text>
<text text-anchor="start" x="132.43" y="-740" font-family="Arial" font-size="14.00" fill="#666666">[text]</text>
<polygon fill="none" stroke="black" points="48.4,-697 48.4,-727.8 312.96,-727.8 312.96,-697 48.4,-697"/>
<text text-anchor="start" x="55.4" y="-709.2" font-family="Arial" font-size="14.00">download_url </text>
<text text-anchor="start" x="142.57" y="-709.2" font-family="Arial" font-size="14.00" fill="#666666">[text]</text>
<polygon fill="none" stroke="black" points="48.4,-666.2 48.4,-697 312.96,-697 312.96,-666.2 48.4,-666.2"/>
<text text-anchor="start" x="55.4" y="-678.4" font-family="Arial" font-size="14.00">checksum </text>
<text text-anchor="start" x="122.31" y="-678.4" font-family="Arial" font-size="14.00" fill="#666666">[text]</text>
<polygon fill="none" stroke="black" points="48.4,-635.4 48.4,-666.2 312.96,-666.2 312.96,-635.4 48.4,-635.4"/>
<text text-anchor="start" x="55.4" y="-647.6" font-family="Arial" font-size="14.00">checksum_type </text>
<text text-anchor="start" x="156.55" y="-647.6" font-family="Arial" font-size="14.00" fill="#666666">[text]</text>
<polygon fill="none" stroke="black" points="48.4,-604.6 48.4,-635.4 312.96,-635.4 312.96,-604.6 48.4,-604.6"/>
<text text-anchor="start" x="55.4" y="-616.8" font-family="Arial" font-size="14.00">file_size </text>
<text text-anchor="start" x="109.87" y="-616.8" font-family="Arial" font-size="14.00" fill="#666666">[bigint]</text>
<polygon fill="none" stroke="black" points="48.4,-573.8 48.4,-604.6 312.96,-604.6 312.96,-573.8 48.4,-573.8"/>
<text text-anchor="start" x="55.4" y="-586" font-family="Arial" font-size="14.00">release_notes </text>
<text text-anchor="start" x="147.24" y="-586" font-family="Arial" font-size="14.00" fill="#666666">[text]</text>
<polygon fill="none" stroke="black" points="48.4,-543 48.4,-573.8 312.96,-573.8 312.96,-543 48.4,-543"/>
<text text-anchor="start" x="55.4" y="-555.2" font-family="Arial" font-size="14.00">release_date </text>
<text text-anchor="start" x="140.24" y="-555.2" font-family="Arial" font-size="14.00" fill="#666666">[timestamp with time zone]</text>
<polygon fill="none" stroke="black" points="48.4,-512.2 48.4,-543 312.96,-543 312.96,-512.2 48.4,-512.2"/>
<text text-anchor="start" x="55.4" y="-524.4" font-family="Arial" font-size="14.00">required </text>
<text text-anchor="start" x="110.65" y="-524.4" font-family="Arial" font-size="14.00" fill="#666666">[boolean]</text>
<polygon fill="none" stroke="black" points="48.4,-481.4 48.4,-512.2 312.96,-512.2 312.96,-481.4 48.4,-481.4"/>
<text text-anchor="start" x="55.4" y="-493.6" font-family="Arial" font-size="14.00">minimum_version </text>
<text text-anchor="start" x="168.98" y="-493.6" font-family="Arial" font-size="14.00" fill="#666666">[text]</text>
<polygon fill="none" stroke="black" points="48.4,-450.6 48.4,-481.4 312.96,-481.4 312.96,-450.6 48.4,-450.6"/>
<text text-anchor="start" x="55.4" y="-462.8" font-family="Arial" font-size="14.00">metadata </text>
<text text-anchor="start" x="117.66" y="-462.8" font-family="Arial" font-size="14.00" fill="#666666">[jsonb]</text>
<polygon fill="none" stroke="black" points="48.4,-419.8 48.4,-450.6 312.96,-450.6 312.96,-419.8 48.4,-419.8"/>
<text text-anchor="start" x="55.4" y="-432" font-family="Arial" font-size="14.00">created_at </text>
<text text-anchor="start" x="125.44" y="-432" font-family="Arial" font-size="14.00" fill="#666666">[timestamp with time zone]</text>
<polygon fill="none" stroke="black" stroke-width="3" points="46.9,-418.3 46.9,-918.9 314.46,-918.9 314.46,-418.3 46.9,-418.3"/>
</g>
<!-- public.applications -->
<g id="node2" class="node">
<title>public.applications</title>
<polygon fill="#efefef" stroke="none" points="43.2,-258.8 43.2,-294.4 318.16,-294.4 318.16,-258.8 43.2,-258.8"/>
<polygon fill="none" stroke="black" points="43.2,-258.8 43.2,-294.4 318.16,-294.4 318.16,-258.8 43.2,-258.8"/>
<text text-anchor="start" x="50.2" y="-272.2" font-family="Arial Bold" font-size="18.00">public.applications</text>
<text text-anchor="start" x="186.67" y="-272.2" font-family="Arial" font-size="14.00">    </text>
<text text-anchor="start" x="217.78" y="-272.2" font-family="Arial" font-size="14.00" fill="#666666">[BASE TABLE]</text>
<polygon fill="none" stroke="black" points="43.2,-228 43.2,-258.8 318.16,-258.8 318.16,-228 43.2,-228"/>
<text text-anchor="start" x="50.2" y="-240.2" font-family="Arial" font-size="14.00">id </text>
<text text-anchor="start" x="64.99" y="-240.2" font-family="Arial" font-size="14.00" fill="#666666">[text]</text>
<polygon fill="none" stroke="black" points="43.2,-197.2 43.2,-228 318.16,-228 318.16,-197.2 43.2,-197.2"/>
<text text-anchor="start" x="50.2" y="-209.4" font-family="Arial" font-size="14.00">name </text>
<text text-anchor="start" x="89.11" y="-209.4" font-family="Arial" font-size="14.00" fill="#666666">[text]</text>
<polygon fill="none" stroke="black" points="43.2,-166.4 43.2,-197.2 318.16,-197.2 318.16,-166.4 43.2,-166.4"/>
<text text-anchor="start" x="50.2" y="-178.6" font-family="Arial" font-size="14.00">description </text>
<text text-anchor="start" x="121.79" y="-178.6" font-family="Arial" font-size="14.00" fill="#666666">[text]</text>
<polygon fill="none" stroke="black" points="43.2,-135.6 43.2,-166.4 318.16,-166.4 318.16,-135.6 43.2,-135.6"/>
<text text-anchor="start" x="50.2" y="-147.8" font-family="Arial" font-size="14.00">platforms </text>
<text text-anchor="start" x="111.66" y="-147.8" font-family="Arial" font-size="14.00" fill="#666666">[jsonb]</text>
<polygon fill="none" stroke="black" points="43.2,-104.8 43.2,-135.6 318.16,-135.6 318.16,-104.8 43.2,-104.8"/>
<text text-anchor="start" x="50.2" y="-117" font-family="Arial" font-size="14.00">config </text>
<text text-anchor="start" x="91.45" y="-117" font-family="Arial" font-size="14.00" fill="#666666">[jsonb]</text>
<polygon fill="none" stroke="black" points="43.2,-74 43.2,-104.8 318.16,-104.8 318.16,-74 43.2,-74"/>
<text text-anchor="start" x="50.2" y="-86.2" font-family="Arial" font-size="14.00">created_at </text>
<text text-anchor="start" x="120.25" y="-86.2" font-family="Arial" font-size="14.00" fill="#666666">[timestamp with time zone]</text>
<polygon fill="none" stroke="black" points="43.2,-43.2 43.2,-74 318.16,-74 318.16,-43.2 43.2,-43.2"/>
<text text-anchor="start" x="50.2" y="-55.4" font-family="Arial" font-size="14.00">updated_at </text>
<text text-anchor="start" x="124.16" y="-55.4" font-family="Arial" font-size="14.00" fill="#666666">[timestamp with time zone]</text>
</g>
<!-- public.releases&#45;&gt;public.applications -->
<g id="edge1" class="edge">
<title>public.releases:application_id&#45;&gt;public.applications:id</title>
<path fill="none" stroke="black" d="M323.17,-831.5C380.1,-779.18 381.75,-243.4 319.16,-243.4"/>
<polygon fill="black" stroke="black" points="323.4,-831.4 312.44,-831.35 318.53,-833.57 314.57,-835.33 314.57,-835.33 314.57,-835.33 318.53,-833.57 316.1,-839.57 323.4,-831.4"/>
<text text-anchor="start" x="320.96" y="-845.6" font-family="Arial" font-size="10.00">FOREIGN KEY (application_id) REFERENCES applications(id) ON DELETE RESTRICT</text>
</g>
</g>
</svg>
