<?xml version="1.0" encoding="UTF-8" standalone="no"?>
<!DOCTYPE svg PUBLIC "-//W3C//DTD SVG 1.1//EN"
 "http://www.w3.org/Graphics/SVG/1.1/DTD/svg11.dtd">
<!-- Generated by graphviz version 12.1.2 (20240928.0832)
 -->
<!-- Title: updater Pages: 1 -->
<svg width="728pt" height="1089pt"
 viewBox="0.00 0.00 728.29 1088.80" xmlns="http://www.w3.org/2000/svg" xmlns:xlink="http://www.w3.org/1999/xlink">
<g id="graph0" class="graph" transform="scale(1 1) rotate(0) translate(4 1084.8)">
<title>updater</title>
<polygon fill="white" stroke="none" points="-4,4 -4,-1084.8 724.29,-1084.8 724.29,4 -4,4"/>
<!-- public.applications -->
<g id="node1" class="node">
<title>public.applications</title>
<polygon fill="#efefef" stroke="none" points="43.2,-258.8 43.2,-294.4 318.16,-294.4 318.16,-258.8 43.2,-258.8"/>
<polygon fill="none" stroke="black" points="43.2,-258.8 43.2,-294.4 318.16,-294.4 318.16,-258.8 43.2,-258.8"/>
<text text-anchor="start" x="50.2" y="-272.2" font-family="Arial Bold" font-size="18.00">public.applications</text>
<text text-anchor="start" x="186.67" y="-272.2" font-family="Arial" font-size="14.00">    </text>
<text text-anchor="start" x="217.78" y="-272.2" font-family="Arial" font-size="14.00" fill="#666666">[BASE TABLE]</text>
<polygon fill="none" stroke="black" points="43.2,-228 43.2,-258.8 318.16,-258.8 318.16,-228 43.2,-228"/>
<text text-anchor="start" x="50.2" y="-240.2" font-family="Arial" font-size="14.00">id </text>
<text text-anchor="start" x="64.99" y="-240.2" font-family="Arial" font-size="14.00" fill="#666666">[text]</text>
<polygon fill="none" stroke="black" points="43.2,-197.2 43.2,-228 318.16,-228 318.16,-197.2 43.2,-197.2"/>
<text text-anchor="start" x="50.2" y="-209.4" font-family="Arial" font-size="14.00">name </text>
<text text-anchor="start" x="89.11" y="-209.4" font-family="Arial" font-size="14.00" fill="#666666">[text]</text>
<polygon fill="none" stroke="black" points="43.2,-166.4 43.2,-197.2 318.16,-197.2 318.16,-166.4 43.2,-166.4"/>
<text text-anchor="start" x="50.2" y="-178.6" font-family="Arial" font-size="14.00">description </text>
<text text-anchor="start" x="121.79" y="-178.6" font-family="Arial" font-size="14.00" fill="#666666">[text]</text>
<polygon fill="none" stroke="black" points="43.2,-135.6 43.2,-166.4 318.16,-166.4 318.16,-135.6 43.2,-135.6"/>
<text text-anchor="start" x="50.2" y="-147.8" font-family="Arial" font-size="14.00">platforms </text>
<text text-anchor="start" x="111.66" y="-147.8" font-family="Arial" font-size="14.00" fill="#666666">[jsonb]</text>
<polygon fill="none" stroke="black" points="43.2,-104.8 43.2,-135.6 318.16,-135.6 318.16,-104.8 43.2,-104.8"/>
<text text-anchor="start" x="50.2" y="-117" font-family="Arial" font-size="14.00">config </text>
<text text-anchor="start" x="91.45" y="-117" font-family="Arial" font-size="14.00" fill="#666666">[jsonb]</text>
<polygon fill="none" stroke="black" points="43.2,-74 43.2,-104.8 318.16,-104.8 318.16,-74 43.2,-74"/>
<text text-anchor="start" x="50.2" y="-86.2" font-family="Arial" font-size="14.00">created_at </text>
<text text-anchor="start" x="120.25" y="-86.2" font-family="Arial" font-size="14.00" fill="#666666">[timestamp with time zone]</text>
<polygon fill="none" stroke="black" points="43.2,-43.2 43.2,-74 318.16,-74 318.16,-43.2 43.2,-43.2"/>
<text text-anchor="start" x="50.2" y="-55.4" font-family="Arial" font-size="14.00">updated_at </text>
<text text-anchor="start" x="124.16" y="-55.4" font-family="Arial" font-size="14.00" fill="#666666">[timestamp with time zone]</text>
</g>
<!-- public.releases -->
<g id="node2" class="node">
<title>public.releases</title>
<polygon fill="#efefef" stroke="none" points="48.4,-1002 48.4,-1037.6 312.96,-1037.6 312.96,-1002 48.4,-1002"/>
<polygon fill="none" stroke="black" points="48.4,-1002 48.4,-1037.6 312.96,-1037.6 312.96,-1002 48.4,-1002"/>
<text text-anchor="start" x="65.21" y="-1015.4" font-family="Arial Bold" font-size="18.00">public.releases</text>
<text text-anchor="start" x="171.66" y="-1015.4" font-family="Arial" font-size="14.00">    </text>
<text text-anchor="start" x="202.78" y="-1015.4" font-family="Arial" font-size="14.00" fill="#666666">[BASE TABLE]</text>
<polygon fill="none" stroke="black" points="48.4,-971.2 48.4,-1002 312.96,-1002 312.96,-971.2 48.4,-971.2"/>
<text text-anchor="start" x="55.4" y="-983.4" font-family="Arial" font-size="14.00">id </text>
<text text-anchor="start" x="70.18" y="-983.4" font-family="Arial" font-size="14.00" fill="#666666">[text]</text>
<polygon fill="none" stroke="black" points="48.4,-940.4 48.4,-971.2 312.96,-971.2 312.96,-940.4 48.4,-940.4"/>
<text text-anchor="start" x="55.4" y="-952.6" font-family="Arial" font-size="14.00">application_id </text>
<text text-anchor="start" x="144.91" y="-952.6" font-family="Arial" font-size="14.00" fill="#666666">[text]</text>
<polygon fill="none" stroke="black" points="48.4,-909.6 48.4,-940.4 312.96,-940.4 312.96,-909.6 48.4,-909.6"/>
<text text-anchor="start" x="55.4" y="-921.8" font-family="Arial" font-size="14.00">version </text>
<text text-anchor="start" x="104.42" y="-921.8" font-family="Arial" font-size="14.00" fill="#666666">[text]</text>
<polygon fill="none" stroke="black" points="48.4,-878.8 48.4,-909.6 312.96,-909.6 312.96,-878.8 48.4,-878.8"/>
<text text-anchor="start" x="55.4" y="-891" font-family="Arial" font-size="14.00">platform </text>
<text text-anchor="start" x="109.86" y="-891" font-family="Arial" font-size="14.00" fill="#666666">[text]</text>
<polygon fill="none" stroke="black" points="48.4,-848 48.4,-878.8 312.96,-878.8 312.96,-848 48.4,-848"/>
<text text-anchor="start" x="55.4" y="-860.2" font-family="Arial" font-size="14.00">architecture </text>
<text text-anchor="start" x="132.43" y="-860.2" font-family="Arial" font-size="14.00" fill="#666666">[text]</text>
<polygon fill="none" stroke="black" points="48.4,-817.2 48.4,-848 312.96,-848 312.96,-817.2 48.4,-817.2"/>
<text text-anchor="start" x="55.4" y="-829.4" font-family="Arial" font-size="14.00">download_url </text>
<text text-anchor="start" x="142.57" y="-829.4" font-family="Arial" font-size="14.00" fill="#666666">[text]</text>
<polygon fill="none" stroke="black" points="48.4,-786.4 48.4,-817.2 312.96,-817.2 312.96,-786.4 48.4,-786.4"/>
<text text-anchor="start" x="55.4" y="-798.6" font-family="Arial" font-size="14.00">checksum </text>
<text text-anchor="start" x="122.31" y="-798.6" font-family="Arial" font-size="14.00" fill="#666666">[text]</text>
<polygon fill="none" stroke="black" points="48.4,-755.6 48.4,-786.4 312.96,-786.4 312.96,-755.6 48.4,-755.6"/>
<text text-anchor="start" x="55.4" y="-767.8" font-family="Arial" font-size="14.00">checksum_type </text>
<text text-anchor="start" x="156.55" y="-767.8" font-family="Arial" font-size="14.00" fill="#666666">[text]</text>
<polygon fill="none" stroke="black" points="48.4,-724.8 48.4,-755.6 312.96,-755.6 312.96,-724.8 48.4,-724.8"/>
<text text-anchor="start" x="55.4" y="-737" font-family="Arial" font-size="14.00">file_size </text>
<text text-anchor="start" x="109.87" y="-737" font-family="Arial" font-size="14.00" fill="#666666">[bigint]</text>
<polygon fill="none" stroke="black" points="48.4,-694 48.4,-724.8 312.96,-724.8 312.96,-694 48.4,-694"/>
<text text-anchor="start" x="55.4" y="-706.2" font-family="Arial" font-size="14.00">release_notes </text>
<text text-anchor="start" x="147.24" y="-706.2" font-family="Arial" font-size="14.00" fill="#666666">[text]</text>
<polygon fill="none" stroke="black" points="48.4,-663.2 48.4,-694 312.96,-694 312.96,-663.2 48.4,-663.2"/>
<text text-anchor="start" x="55.4" y="-675.4" font-family="Arial" font-size="14.00">release_date </text>
<text text-anchor="start" x="140.24" y="-675.4" font-family="Arial" font-size="14.00" fill="#666666">[timestamp with time zone]</text>
<polygon fill="none" stroke="black" points="48.4,-632.4 48.4,-663.2 312.96,-663.2 312.96,-632.4 48.4,-632.4"/>
<text text-anchor="start" x="55.4" y="-644.6" font-family="Arial" font-size="14.00">required </text>
<text text-anchor="start" x="110.65" y="-644.6" font-family="Arial" font-size="14.00" fill="#666666">[boolean]</text>
<polygon fill="none" stroke="black" points="48.4,-601.6 48.4,-632.4 312.96,-632.4 312.96,-601.6 48.4,-601.6"/>
<text text-anchor="start" x="55.4" y="-613.8" font-family="Arial" font-size="14.00">minimum_version </text>
<text text-anchor="start" x="168.98" y="-613.8" font-family="Arial" font-size="14.00" fill="#666666">[text]</text>
<polygon fill="none" stroke="black" points="48.4,-570.8 48.4,-601.6 312.96,-601.6 312.96,-570.8 48.4,-570.8"/>
<text text-anchor="start" x="55.4" y="-583" font-family="Arial" font-size="14.00">metadata </text>
<text text-anchor="start" x="117.66" y="-583" font-family="Arial" font-size="14.00" fill="#666666">[jsonb]</text>
<polygon fill="none" stroke="black" points="48.4,-540 48.4,-570.8 312.96,-570.8 312.96,-540 48.4,-540"/>
<text text-anchor="start" x="55.4" y="-552.2" font-family="Arial" font-size="14.00">created_at </text>
<text text-anchor="start" x="125.44" y="-552.2" font-family="Arial" font-size="14.00" fill="#666666">[timestamp with time zone]</text>
<polygon fill="none" stroke="black" points="48.4,-509.2 48.4,-540 312.96,-540 312.96,-509.2 48.4,-509.2"/>
<text text-anchor="start" x="55.4" y="-521.4" font-family="Arial" font-size="14.00">version_major </text>
<text text-anchor="start" x="147.21" y="-521.4" font-family="Arial" font-size="14.00" fill="#666666">[bigint]</text>
<polygon fill="none" stroke="black" points="48.4,-478.4 48.4,-509.2 312.96,-509.2 312.96,-478.4 48.4,-478.4"/>
<text text-anchor="start" x="55.4" y="-490.6" font-family="Arial" font-size="14.00">version_minor </text>
<text text-anchor="start" x="147.21" y="-490.6" font-family="Arial" font-size="14.00" fill="#666666">[bigint]</text>
<polygon fill="none" stroke="black" points="48.4,-447.6 48.4,-478.4 312.96,-478.4 312.96,-447.6 48.4,-447.6"/>
<text text-anchor="start" x="55.4" y="-459.8" font-family="Arial" font-size="14.00">version_patch </text>
<text text-anchor="start" x="146.45" y="-459.8" font-family="Arial" font-size="14.00" fill="#666666">[bigint]</text>
<polygon fill="none" stroke="black" points="48.4,-416.8 48.4,-447.6 312.96,-447.6 312.96,-416.8 48.4,-416.8"/>
<text text-anchor="start" x="55.4" y="-429" font-family="Arial" font-size="14.00">version_pre_release </text>
<text text-anchor="start" x="186.14" y="-429" font-family="Arial" font-size="14.00" fill="#666666">[text]</text>
</g>
<!-- public.releases&#45;&gt;public.applications -->
<g id="edge1" class="edge">
<title>public.releases:application_id&#45;&gt;public.applications:id</title>
<path fill="none" stroke="black" d="M320.77,-948.28C354,-872.14 356.34,-243.4 319.16,-243.4"/>
<polygon fill="black" stroke="black" points="320.9,-948.14 310.85,-952.53 317.32,-952.09 314.41,-955.3 314.41,-955.3 314.41,-955.3 317.32,-952.09 317.52,-958.57 320.9,-948.14"/>
<text text-anchor="start" x="320.96" y="-965.8" font-family="Arial" font-size="10.00">FOREIGN KEY (application_id) REFERENCES applications(id) ON DELETE RESTRICT</text>
</g>
<!-- public.api_keys -->
<g id="node3" class="node">
<title>public.api_keys</title>
<polygon fill="#efefef" stroke="none" points="417.84,-832.6 417.84,-868.2 671.52,-868.2 671.52,-832.6 417.84,-832.6"/>
<polygon fill="none" stroke="black" points="417.84,-832.6 417.84,-868.2 671.52,-868.2 671.52,-832.6 417.84,-832.6"/>
<text text-anchor="start" x="425.7" y="-846" font-family="Arial Bold" font-size="18.00">public.api_keys</text>
<text text-anchor="start" x="539.17" y="-846" font-family="Arial" font-size="14.00">    </text>
<text text-anchor="start" x="570.29" y="-846" font-family="Arial" font-size="14.00" fill="#666666">[BASE TABLE]</text>
<polygon fill="none" stroke="black" points="417.84,-801.8 417.84,-832.6 671.52,-832.6 671.52,-801.8 417.84,-801.8"/>
<text text-anchor="start" x="424.84" y="-814" font-family="Arial" font-size="14.00">id </text>
<text text-anchor="start" x="439.62" y="-814" font-family="Arial" font-size="14.00" fill="#666666">[text]</text>
<polygon fill="none" stroke="black" points="417.84,-771 417.84,-801.8 671.52,-801.8 671.52,-771 417.84,-771"/>
<text text-anchor="start" x="424.84" y="-783.2" font-family="Arial" font-size="14.00">name </text>
<text text-anchor="start" x="463.75" y="-783.2" font-family="Arial" font-size="14.00" fill="#666666">[text]</text>
<polygon fill="none" stroke="black" points="417.84,-740.2 417.84,-771 671.52,-771 671.52,-740.2 417.84,-740.2"/>
<text text-anchor="start" x="424.84" y="-752.4" font-family="Arial" font-size="14.00">key_hash </text>
<text text-anchor="start" x="488.66" y="-752.4" font-family="Arial" font-size="14.00" fill="#666666">[text]</text>
<polygon fill="none" stroke="black" points="417.84,-709.4 417.84,-740.2 671.52,-740.2 671.52,-709.4 417.84,-709.4"/>
<text text-anchor="start" x="424.84" y="-721.6" font-family="Arial" font-size="14.00">prefix </text>
<text text-anchor="start" x="462.96" y="-721.6" font-family="Arial" font-size="14.00" fill="#666666">[text]</text>
<polygon fill="none" stroke="black" points="417.84,-678.6 417.84,-709.4 671.52,-709.4 671.52,-678.6 417.84,-678.6"/>
<text text-anchor="start" x="424.84" y="-690.8" font-family="Arial" font-size="14.00">permissions </text>
<text text-anchor="start" x="503.42" y="-690.8" font-family="Arial" font-size="14.00" fill="#666666">[jsonb]</text>
<polygon fill="none" stroke="black" points="417.84,-647.8 417.84,-678.6 671.52,-678.6 671.52,-647.8 417.84,-647.8"/>
<text text-anchor="start" x="424.84" y="-660" font-family="Arial" font-size="14.00">enabled </text>
<text text-anchor="start" x="478.55" y="-660" font-family="Arial" font-size="14.00" fill="#666666">[boolean]</text>
<polygon fill="none" stroke="black" points="417.84,-617 417.84,-647.8 671.52,-647.8 671.52,-617 417.84,-617"/>
<text text-anchor="start" x="424.84" y="-629.2" font-family="Arial" font-size="14.00">created_at </text>
<text text-anchor="start" x="494.89" y="-629.2" font-family="Arial" font-size="14.00" fill="#666666">[timestamp with time zone]</text>
<polygon fill="none" stroke="black" points="417.84,-586.2 417.84,-617 671.52,-617 671.52,-586.2 417.84,-586.2"/>
<text text-anchor="start" x="424.84" y="-598.4" font-family="Arial" font-size="14.00">updated_at </text>
<text text-anchor="start" x="498.8" y="-598.4" font-family="Arial" font-size="14.00" fill="#666666">[timestamp with time zone]</text>
</g>
</g>
</svg>
